# xmcd CD database file
#
# Track frame offsets:
#	150
#	29649
#	41386
#	66649
#	101251
#	124381
#	148853
#	181878
#	207492
#	232200
#	264179
#	277186
#	292305
#	316073
#
# Disc length: 4295 seconds
#
# Revision: 0
# Processed by: cddbd v1.5.2PL0 Copyright (c) Steve Scherf et al.
# Submitted via: CDex 1.70beta2
#
DISCID=e610c50e
DTITLE=Brodka,Eric - Stolen Moments
DYEAR=1998
DGENRE=Jazz
TTITLE0=You Don´t Know What Love Is
TTITLE1=Fly Me To The Moon
TTITLE2=Stolen Moments
TTITLE3=One For My Baby
TTITLE4=Hi-De-Ho
TTITLE5=Samba For A Lady
TTITLE6=Everything Must Change
TTITLE7=People Get Ready
TTITLE8=Nature Boy
TTITLE9=Nardis
TTITLE10=Lullabye Of Birdlant - Love Me Or Leave Me
TTITLE11=What Are You Doing The Rest Of Your Life
TTITLE12=All In Love Is Fair
TTITLE13=Bye, Bye, Blackbird
EXTD=YEAR: 1998
EXTT0=
EXTT1=
EXTT2=
EXTT3=
EXTT4=
EXTT5=
EXTT6=
EXTT7=
EXTT8=
EXTT9=
EXTT10=
EXTT11=
EXTT12=
EXTT13=
PLAYORDER=
